<svg xmlns="http://www.w3.org/2000/svg" width="308.388" height="55.375" viewBox="0 0 308.388 55.375">
  <g id="logo" transform="translate(-194.87 -470.185)">
    <path id="Path_1" data-name="Path 1" d="M367.853,476.79a5.118,5.118,0,0,0,.052,10.23A4.915,4.915,0,0,0,372.3,484.1a.273.273,0,0,0-.237-.4h-2.318a.267.267,0,0,0-.209.1,1.924,1.924,0,0,1-1.631.8,2.128,2.128,0,0,1-2.119-1.462.272.272,0,0,1,.255-.353h6.472a.271.271,0,0,0,.266-.242,4.154,4.154,0,0,0,.029-.518A5.007,5.007,0,0,0,367.853,476.79Zm1.78,4.061h-3.527a.273.273,0,0,1-.247-.379,2.232,2.232,0,0,1,4.02,0A.272.272,0,0,1,369.633,480.851Z" transform="translate(-99.116 -3.895)" fill="#00c7a2"/>
    <path id="Path_2" data-name="Path 2" d="M212.066,517c-9.633,0-17.2,8.337-17.2,18a17.558,17.558,0,0,0,17.376,17.76c6.459,0,12.1-3.744,15.363-10.2a.953.953,0,0,0-.829-1.394h-8.1a.934.934,0,0,0-.73.341,6.725,6.725,0,0,1-5.7,2.8,7.439,7.439,0,0,1-7.407-5.11.949.949,0,0,1,.891-1.235h22.625a.948.948,0,0,0,.929-.846,14.425,14.425,0,0,0,.1-1.811C229.384,524.916,221.879,517,212.066,517Zm6.221,14.2H205.955a.955.955,0,0,1-.861-1.326,7.8,7.8,0,0,1,14.054,0A.951.951,0,0,1,218.287,531.2Z" transform="translate(0 -27.609)" fill="#0f0d6d"/>
    <path id="Path_3" data-name="Path 3" d="M524.066,516c-9.633,0-17.2,8.337-17.2,18a17.558,17.558,0,0,0,17.376,17.761c6.459,0,12.1-3.744,15.363-10.2a.953.953,0,0,0-.829-1.394h-8.1a.934.934,0,0,0-.73.341,6.725,6.725,0,0,1-5.7,2.8,7.439,7.439,0,0,1-7.407-5.11.949.949,0,0,1,.891-1.235h22.625a.948.948,0,0,0,.929-.846,14.428,14.428,0,0,0,.1-1.811C541.384,523.916,533.879,516,524.066,516Zm6.221,14.2H517.955a.955.955,0,0,1-.861-1.326,7.8,7.8,0,0,1,14.054,0A.951.951,0,0,1,530.287,530.2Z" transform="translate(-184.002 -27.019)" fill="#0f0d6d"/>
    <g id="Group_1" data-name="Group 1" transform="translate(233.959 489.391)">
      <path id="Path_4" data-name="Path 4" d="M317.02,552.692a3.625,3.625,0,0,1-3.579-3.669V533.54c0-4.664-1.74-6.84-5.822-6.84-4.484,0-6.358,2.3-6.358,6.964v15.359a3.624,3.624,0,0,1-3.578,3.669H293.73a3.624,3.624,0,0,1-3.578-3.669V521.85a3.624,3.624,0,0,1,3.578-3.669h3.217a3.624,3.624,0,0,1,3.578,3.669h.134c2.342-3.544,5.622-4.85,10.105-4.85,6.692,0,13.786,3.482,13.786,13.68v18.343a3.624,3.624,0,0,1-3.578,3.669Z" transform="translate(-290.152 -517)" fill="#0f0d6d"/>
    </g>
    <g id="Group_2" data-name="Group 2" transform="translate(272.604 479.135)">
      <path id="Path_5" data-name="Path 5" d="M390.172,536.3V513.05a1.712,1.712,0,0,0-1.712-1.711h-2.4a1.711,1.711,0,0,1-1.711-1.711v-4.413a1.711,1.711,0,0,1,1.711-1.711h2.4a1.712,1.712,0,0,0,1.712-1.712v-8.081A1.711,1.711,0,0,1,391.883,492h8.366a1.711,1.711,0,0,1,1.711,1.711v8.081a1.711,1.711,0,0,0,1.711,1.712h2.259a1.711,1.711,0,0,1,1.711,1.711v4.413a1.711,1.711,0,0,1-1.711,1.711h-2.259a1.711,1.711,0,0,0-1.711,1.711V536.3a1.712,1.712,0,0,1-1.711,1.711h-8.366A1.711,1.711,0,0,1,390.172,536.3Z" transform="translate(-384.349 -492)" fill="#0f0d6d"/>
    </g>
    <g id="Group_3" data-name="Group 3" transform="translate(443.267 480.488)">
      <path id="Path_6" data-name="Path 6" d="M806.053,538.694V515.917a1.676,1.676,0,0,0-1.676-1.676h-2.351a1.676,1.676,0,0,1-1.676-1.676v-4.322a1.676,1.676,0,0,1,1.676-1.676h2.351a1.676,1.676,0,0,0,1.676-1.676v-7.915a1.676,1.676,0,0,1,1.676-1.676h8.195a1.676,1.676,0,0,1,1.676,1.676v7.915a1.676,1.676,0,0,0,1.676,1.676h2.212a1.676,1.676,0,0,1,1.676,1.676v4.322a1.676,1.676,0,0,1-1.676,1.676h-2.212a1.677,1.677,0,0,0-1.676,1.676v22.777a1.676,1.676,0,0,1-1.676,1.676h-8.195A1.676,1.676,0,0,1,806.053,538.694Z" transform="translate(-800.349 -495.298)" fill="#0f0d6d"/>
    </g>
    <g id="Group_4" data-name="Group 4" transform="translate(395.006 479.024)">
      <path id="Path_7" data-name="Path 7" d="M689.122,491.73h-2.49a3.92,3.92,0,1,0,0,7.84h2.49a3.92,3.92,0,1,0,0-7.84Zm0,11.512h-2.49a3.922,3.922,0,0,0-3.922,3.922v26.7a3.922,3.922,0,0,0,3.922,3.922h2.49a3.922,3.922,0,0,0,3.922-3.922v-26.7A3.922,3.922,0,0,0,689.122,503.242Z" transform="translate(-682.71 -491.73)" fill="#0f0d6d"/>
    </g>
    <g id="medway" transform="translate(467.993 489.76)">
      <g id="Group_5" data-name="Group 5" transform="translate(0)">
        <path id="Path_8" data-name="Path 8" d="M887.147,520.308a17.628,17.628,0,1,0,0,30.449v1.038a1.284,1.284,0,0,0,1.284,1.284h6.174a1.28,1.28,0,0,0,1.28-1.284V535.533A17.616,17.616,0,0,0,887.147,520.308Zm-8.894,23.532a8.31,8.31,0,1,1,8.283-8.3A8.293,8.293,0,0,1,878.253,543.84Zm17.325-7.684v-.894c0,.144.008.291.008.443S895.581,536,895.577,536.156Z" transform="translate(-860.62 -517.9)" fill="#0f0d6d"/>
      </g>
    </g>
    <g id="Group_6" data-name="Group 6" transform="translate(300.095 488.981)">
      <path id="Path_9" data-name="Path 9" d="M468.537,516.331a11.357,11.357,0,0,0-4.8-.137,12.893,12.893,0,0,0-1.592.245c-.012,0-.029,0-.041.008s-.029,0-.041.008a13.762,13.762,0,0,0-2.966,1.019,13.485,13.485,0,0,0-7.737,11.337v.048l.012,1.736.123,18.437.012,2.074a.592.592,0,0,0,.6.584l10.367-.068a.592.592,0,0,0,.595-.592l-.033-4.934-.021-3.145v0l-.074-10.829v-.069c0-.125,0-.246.008-.363,0-.1.008-.2.012-.294,0-.068.012-.133.016-.2s.016-.149.025-.218q.018-.169.049-.338a5.74,5.74,0,0,1,.148-.673c.025-.089.049-.177.078-.262.037-.109.078-.217.119-.318s.078-.19.123-.282a.013.013,0,0,1,0-.008,2.5,2.5,0,0,1,.144-.274,2.969,2.969,0,0,1,.16-.266c.057-.088.115-.173.181-.258s.127-.165.2-.246c.082-.1.168-.185.258-.278.062-.06.127-.117.193-.177.086-.076.172-.149.267-.217.07-.056.14-.109.213-.157l.049-.036a5.454,5.454,0,0,1,.656-.387c.074-.04.148-.076.226-.113.1-.048.2-.092.3-.137.045-.02.086-.037.131-.053a7.244,7.244,0,0,1,.882-.3c.094-.028.189-.053.287-.077.082-.024.164-.044.246-.064s.176-.04.263-.056.148-.032.226-.044l.2-.036.135-.024a1.22,1.22,0,0,1,.176-.028c.049,0,.1-.012.148-.02l.148-.024a1.18,1.18,0,0,1,.127-.016l.09-.012,4.459-6.351A10.637,10.637,0,0,0,468.537,516.331Zm-4.2,11.535a4.431,4.431,0,0,1,.624-.536C464.751,527.5,464.541,527.68,464.34,527.866Zm3.143-11.526a13.459,13.459,0,0,0-1.411-.169,0,0,0,0,1,0,0,0,0,0,0,1,0,0,13.919,13.919,0,0,1,3.61.721s.008,0,.012,0l.172.089A13.563,13.563,0,0,0,467.483,516.339Z" transform="translate(-451.36 -516)" fill="#0f0d6d"/>
    </g>
    <g id="Group_7" data-name="Group 7" transform="translate(218.455 472.981)">
      <path id="Path_10" data-name="Path 10" d="M256.939,477.1a2.811,2.811,0,0,0-1.28-.039,3.254,3.254,0,0,0-.424.071l-.011,0-.011,0a3.5,3.5,0,0,0-.791.293,3.886,3.886,0,0,0-2.062,3.258v.014l0,.5.033,5.3,0,.6a.164.164,0,0,0,.161.168l2.763-.02a.165.165,0,0,0,.159-.17l-.009-1.417-.005-.9h0l-.02-3.112v-.02c0-.036,0-.071,0-.1s0-.057,0-.085,0-.038,0-.057,0-.043.007-.062.008-.065.013-.1a1.759,1.759,0,0,1,.039-.193c.007-.025.013-.051.021-.076s.021-.062.032-.091.021-.055.033-.081v0a.767.767,0,0,1,.039-.078.818.818,0,0,1,.043-.077c.015-.025.03-.05.048-.074s.034-.048.053-.071.045-.053.069-.08l.051-.051c.023-.022.046-.043.071-.062a.722.722,0,0,1,.057-.045l.013-.011a1.472,1.472,0,0,1,.175-.111l.06-.032.081-.039.035-.015a1.821,1.821,0,0,1,.235-.086c.025-.008.05-.015.076-.022l.066-.019.07-.016c.02,0,.039-.009.06-.013l.052-.01.036-.007a.287.287,0,0,1,.047-.008l.039-.006.039-.007.034,0,.024,0,1.189-1.825A2.8,2.8,0,0,0,256.939,477.1Zm-1.119,3.314a1.233,1.233,0,0,1,.166-.154C255.93,480.3,255.874,480.356,255.82,480.409Zm.838-3.312a3.338,3.338,0,0,0-.376-.049h0a3.344,3.344,0,0,1,.4.052,3.449,3.449,0,0,1,.559.155h0l.046.025A3.392,3.392,0,0,0,256.658,477.1Z" transform="translate(-252.36 -477)" fill="#00c7a2"/>
    </g>
    <g id="Group_8" data-name="Group 8" transform="translate(409.401 489.265)">
      <path id="Path_11" data-name="Path 11" d="M737.146,527.3a.765.765,0,0,1-.742-.568,3.315,3.315,0,0,0-3.654-2.754c-1.974,0-3.667,1.154-3.667,2.676,0,2.03,2.257,2.953,6.827,4.567,9.2,3.229,11.51,5.951,11.51,10.427,0,6.6-5.529,10.473-14.556,10.473-9.083,0-15.064-3.876-15.064-11.211h0a.751.751,0,0,1,.762-.738h9.133a.75.75,0,0,1,.756.647,4.2,4.2,0,0,0,4.357,4.013c2.2,0,4.006-1.431,4.006-3.276,0-2.722-4.626-3.922-8.406-5.167-6.827-2.261-9.93-5.213-9.93-9.642,0-5.813,6.883-10.058,14.556-10.058a18.812,18.812,0,0,1,7.391,1.43c4.2,1.781,6.343,4.3,6.626,8.4a.747.747,0,0,1-.762.779Z" transform="translate(-717.799 -516.693)" fill="#0f0d6d"/>
    </g>
    <g id="medway-2" data-name="medway" transform="translate(359.39 489.571)">
      <g id="way">
        <g id="Group_9" data-name="Group 9">
          <path id="Path_12" data-name="Path 12" d="M605.342,549.787l-9.143-25.5a5.121,5.121,0,0,1,4.82-6.849h.013a5.121,5.121,0,0,1,4.9,3.621l5.717,18.66h.129l5.716-18.66a5.122,5.122,0,0,1,4.9-3.621h0A5.121,5.121,0,0,1,627.2,524.3l-9.188,25.5a5.121,5.121,0,0,1-4.818,3.385h-3.036A5.121,5.121,0,0,1,605.342,549.787Z" transform="translate(-595.894 -517.44)" fill="#0f0d6d"/>
        </g>
      </g>
    </g>
    <g id="Group_10" data-name="Group 10" transform="translate(196.125 473.1)">
      <path id="Path_13" data-name="Path 13" d="M205.092,481.221a.153.153,0,0,1-.137-.086,2.148,2.148,0,0,0-2.051-1.23,2.387,2.387,0,0,0,.068,4.758,2.123,2.123,0,0,0,1.981-1.168.154.154,0,0,1,.134-.08h2.564a.153.153,0,0,1,.147.195,4.936,4.936,0,0,1-3.991,3.592,5.054,5.054,0,0,1-5.856-5.429,4.908,4.908,0,0,1,4.886-4.483,4.962,4.962,0,0,1,4.948,3.738.153.153,0,0,1-.148.193Z" transform="translate(-197.928 -477.29)" fill="#00c7a2"/>
    </g>
    <g id="Group_11" data-name="Group 11" transform="translate(225.599 472.981)">
      <path id="Path_14" data-name="Path 14" d="M275.376,480.073a.222.222,0,0,1-.215-.165.96.96,0,0,0-1.058-.8c-.572,0-1.062.334-1.062.775,0,.588.654.855,1.977,1.323,2.663.935,3.333,1.723,3.333,3.019,0,1.911-1.6,3.033-4.215,3.033-2.631,0-4.362-1.122-4.362-3.247h0a.217.217,0,0,1,.221-.214h2.644a.217.217,0,0,1,.219.188,1.216,1.216,0,0,0,1.262,1.162,1.066,1.066,0,0,0,1.16-.949c0-.788-1.34-1.136-2.434-1.5-1.977-.655-2.876-1.51-2.876-2.793,0-1.683,1.993-2.912,4.215-2.912a5.445,5.445,0,0,1,2.141.414,2.691,2.691,0,0,1,1.919,2.433.216.216,0,0,1-.221.226Z" transform="translate(-269.774 -477)" fill="#00c7a2"/>
    </g>
    <g id="Group_12" data-name="Group 12" transform="translate(207.068 472.981)">
      <path id="Path_15" data-name="Path 15" d="M231.921,477h0a1.38,1.38,0,0,1,1.46,1.28v4.858a4.057,4.057,0,0,1-.572,2.372,4.383,4.383,0,0,1-3.771,1.707,5.346,5.346,0,0,1-2.441-.5,3.438,3.438,0,0,1-1.994-3.564V478.28a1.38,1.38,0,0,1,1.46-1.28h0a1.379,1.379,0,0,1,1.46,1.28v4.831c0,1.247.448,1.857,1.484,1.857.989,0,1.453-.434,1.453-1.843V478.28A1.379,1.379,0,0,1,231.921,477Z" transform="translate(-224.604 -477)" fill="#00c7a2"/>
    </g>
    <g id="Group_13" data-name="Group 13" transform="translate(235.331 472.928)">
      <path id="Path_16" data-name="Path 16" d="M293.5,482.369a5.206,5.206,0,1,1,5.318,5.031A5.154,5.154,0,0,1,293.5,482.369Zm7.889-.219a2.837,2.837,0,0,0-2.692-3,3.007,3.007,0,1,0,2.692,3Z" transform="translate(-293.496 -476.872)" fill="#00c7a2" stroke="#00c7a2" stroke-miterlimit="10" stroke-width="1"/>
    </g>
    <g id="Group_14" data-name="Group 14" transform="translate(251.748 470.185)">
      <path id="Path_17" data-name="Path 17" d="M341.239,483a0,0,0,0,1,0,0v-1.033H341.2a2.861,2.861,0,0,1-2.229,1.312,4.931,4.931,0,0,1-5.415-4.369c-.363-3.218,1.68-5.841,4.719-5.841a3.735,3.735,0,0,1,2.813,1.134,0,0,0,0,0,.009,0v-4a.005.005,0,0,1,0-.005h2.864a.005.005,0,0,1,0,.005v12.8a0,0,0,0,1,0,0Zm.012-4.847a2.433,2.433,0,1,0-2.458,2.476A2.408,2.408,0,0,0,341.251,478.148Z" transform="translate(-333.513 -470.185)" fill="#00c7a2"/>
    </g>
  </g>
</svg>
